{"title":"Desi Boyz 2011 Hindi 1080p Brrip x264 Ratzz","uid":7113742,"size":1746358769,"categoryP":"video","categoryS":"hd___movies","magnet":"?xt=urn:btih:3393b9361ac449c86a290ee8ae153dcb8e20f7ab&amp;dn=Desi+Boyz+2011+Hindi+1080p+Brrip+x264+Ratzz&amp;tr=udp%3A%2F%2Ftracker.openbittorrent.com%3A80&amp;tr=udp%3A%2F%2Fopen.demonii.com%3A1337&amp;tr=udp%3A%2F%2Ftracker.coppersurfer.tk%3A6969&amp;tr=udp%3A%2F%2Fexodus.desync.com%3A6969","seeders":0,"leechers":1,"uploader":"afterratzz","files":7,"time":1332154373,"description":"Encoded by Ratzz.\n\n\n\n\n\n\n\nGeneral\n\nComplete name                    : Desi Boyz 2011 Hindi 1080p Brrip x264 Ratzz.mp4\n\nFormat                           : MP4\nFormat profile                   : Base Media\nCodec ID                         : isom\nFile size                        : 1.61 GiB\nDuration                         : 2h 1mn\nOverall bit rate                 : 1 899 Kbps\nCover                            : Yes\n\nVideo\nID                               : 1\nFormat                           : AVC\nFormat/Info                      : Advanced Video Codec\nFormat profile                   : &lt;a class=&quot;__cf_email__&quot; href=&quot;/cdn-cgi/l/email-protection&quot; data-cfemail=&quot;226a4b454a626e160c12&quot;&gt;[email&amp;#160;protected]&lt;/a&gt;&lt;script cf-hash='f9e31' type=&quot;text/javascript&quot;&gt;\n/* &lt;![CDATA[ */!function(){try{var t=&quot;currentScript&quot;in document?document.currentScript:function(){for(var t=document.getElementsByTagName(&quot;script&quot;),e=t.length;e--;)if(t[e].getAttribute(&quot;cf-hash&quot;))return t[e]}();if(t&amp;&amp;t.previousSibling){var e,r,n,i,c=t.previousSibling,a=c.getAttribute(&quot;data-cfemail&quot;);if(a){for(e=&quot;&quot;,r=parseInt(a.substr(0,2),16),n=2;a.length-n;n+=2)i=parseInt(a.substr(n,2),16)^r,e+=String.fromCharCode(i);e=document.createTextNode(e),c.parentNode.replaceChild(e,c)}}}catch(u){}}();/* ]]&gt; */&lt;/script&gt;\nFormat settings, CABAC           : Yes\nFormat settings, ReFrames        : 3 frames\nDuration                         : 2h 1mn\nBit rate mode                    : Variable\nBit rate                         : 1 800 Kbps\nMaximum bit rate                 : 25.0 Mbps\nWidth                            : 1 920 pixels\nHeight                           : 816 pixels\nDisplay aspect ratio             : 2.35:1\nFrame rate mode                  : Constant\nFrame rate                       : 24.000 fps\nColor space                      : YUV\nChroma subsampling               : 4:2:0\nBit depth                        : 8 bits\nScan type                        : Progressive\nBits/(Pixel*Frame)               : 0.048\nStream size                      : 1.53 GiB (95%)\nTitle                            : Desi Boyz 2011 Hindi 1080p Brrip x264 Ratzz\n\nAudio\nID                               : 2\nFormat                           : AAC\nFormat/Info                      : Advanced Audio Codec\nFormat profile                   : LC\nCodec ID                         : 40\nDuration                         : 2h 1mn\nBit rate mode                    : Variable\nBit rate                         : 96.0 Kbps\nMaximum bit rate                 : 101 Kbps\nChannel(s)                       : 2 channels\nChannel positions                : Front: L R\nSampling rate                    : 48.0 KHz\nCompression mode                 : Lossy\nStream size                      : 83.5 MiB (5%)\nLanguage                         : Hindi\n\n\n\n\n\n\n\nSample                           : Included.\n\n\n\n\n\n\nSubtitles                        : not included.\n\n\n\n\nPoster :\n\n &lt;a href=&quot;\nhttp://img571.imageshack.us/img571/2424/desiboyz2011hindi1080pb.jpg&quot; rel=&quot;nofollow&quot; target=&quot;_NEW&quot;&gt;\nhttp://img571.imageshack.us/img571/2424/desiboyz2011hindi1080pb.jpg&lt;/a&gt;\n\n\n\nScreens :\n\n &lt;a href=&quot;\nhttp://img33.imageshack.us/img33/2424/desiboyz2011hindi1080pb.jpg&quot; rel=&quot;nofollow&quot; target=&quot;_NEW&quot;&gt;\nhttp://img33.imageshack.us/img33/2424/desiboyz2011hindi1080pb.jpg&lt;/a&gt;\n &lt;a href=&quot;\nhttp://img23.imageshack.us/img23/2424/desiboyz2011hindi1080pb.jpg&quot; rel=&quot;nofollow&quot; target=&quot;_NEW&quot;&gt;\nhttp://img23.imageshack.us/img23/2424/desiboyz2011hindi1080pb.jpg&lt;/a&gt;\n &lt;a href=&quot;\nhttp://img40.imageshack.us/img40/2424/desiboyz2011hindi1080pb.jpg&quot; rel=&quot;nofollow&quot; target=&quot;_NEW&quot;&gt;\nhttp://img40.imageshack.us/img40/2424/desiboyz2011hindi1080pb.jpg&lt;/a&gt;\n\n\n\n\n\n\n\nPls seed back and reply if you like my work.\n\nThank you.","torrent":{"xt":"urn:btih:3393b9361ac449c86a290ee8ae153dcb8e20f7ab","amp;dn":"Desi+Boyz+2011+Hindi+1080p+Brrip+x264+Ratzz","amp;tr":["udp%3A%2F%2Ftracker.openbittorrent.com%3A80","udp%3A%2F%2Fopen.demonii.com%3A1337","udp%3A%2F%2Ftracker.coppersurfer.tk%3A6969","udp%3A%2F%2Fexodus.desync.com%3A6969"],"infoHash":"3393b9361ac449c86a290ee8ae153dcb8e20f7ab","infoHashBuffer":{"type":"Buffer","data":[51,147,185,54,26,196,73,200,106,41,14,232,174,21,61,203,142,32,247,171]},"announce":[],"urlList":[]}}